<svg width="126" height="66" viewBox="0 0 126 66" fill="none" xmlns="http://www.w3.org/2000/svg">
<path d="M34.069 46.315C32.62 46.315 31.276 45.769 30.394 45.034C30.121 44.803 29.806 44.845 29.722 45.223L29.512 46.126H28.861L28.945 39.448H29.659C29.806 41.8 31.381 45.139 33.943 45.139C35.329 45.139 35.98 44.194 35.98 43.123C35.98 41.611 34.909 40.498 33.271 39.259C30.772 37.39 29.05 36.214 29.05 33.526C29.05 30.46 31.36 28.864 33.985 28.864C35.476 28.864 36.442 29.368 37.093 29.935C37.471 30.25 37.786 30.145 37.891 29.683L38.017 29.074H38.626L38.857 34.723H38.185C38.059 32.623 36.589 30.04 34.405 30.04C33.145 30.04 32.515 30.901 32.515 31.867C32.515 33.064 33.271 33.736 35.56 35.416C38.143 37.327 39.466 38.713 39.466 41.212C39.466 44.551 36.925 46.315 34.069 46.315ZM65.6561 39.559H66.9671C66.7961 43.891 65.4281 46.912 61.6661 46.912C58.4171 46.912 56.4791 44.746 56.4791 39.445V38.419C55.1681 43.777 52.1471 46.912 48.0431 46.912C43.9961 46.912 41.7161 43.891 41.7161 40.186C41.7161 33.004 49.9811 29.812 56.4791 26.905V23.599C56.4791 18.697 54.8831 16.987 52.0901 16.987C49.8671 16.987 48.2711 18.127 48.2711 20.008C48.2711 21.319 49.0691 22.06 49.0691 23.371C49.0691 24.91 48.1001 25.993 46.2761 25.993C44.2241 25.993 43.1411 24.568 43.1411 22.459C43.1411 18.241 47.2451 14.707 53.0021 14.707C58.5311 14.707 61.9511 17.842 61.9511 23.998V40.813C61.9511 43.606 62.5211 44.29 63.4331 44.29C64.6301 44.29 65.5421 43.15 65.6561 39.559ZM50.2661 42.58C52.5461 42.58 54.9971 40.471 56.4791 35.512V28.786C51.8621 31.18 47.1881 33.916 47.1881 38.647C47.1881 41.041 48.2711 42.58 50.2661 42.58ZM67.1332 45.54L68.0782 42.46C68.1682 42.165 68.1832 42.105 67.7332 42.105L67.7632 42H68.9682L68.9382 42.105C68.5632 42.105 68.4732 42.165 68.3832 42.46L67.4382 45.54C67.3482 45.835 67.3332 45.895 67.7832 45.895L67.7482 46H66.5382L66.5732 45.895C66.9482 45.895 67.0432 45.835 67.1332 45.54ZM74.1346 26.935C72.3366 26.935 71.1276 25.819 71.1276 24.176C71.1276 22.533 72.3366 21.386 74.1346 21.386C75.9016 21.386 77.1106 22.533 77.1106 24.176C77.1106 25.819 75.9016 26.935 74.1346 26.935ZM77.0796 29.229V42.342C77.0796 44.481 77.5446 45.101 79.5596 45.101V46H69.0196V45.101C71.0656 45.101 71.5306 44.481 71.5306 42.342L71.4996 34.406C71.4996 32.05 71.4376 31.492 69.5466 32.236L69.1746 31.337L76.2116 28.516L77.0796 29.229ZM97.6305 17.2L97.3785 18.064C94.6425 18.064 93.7425 18.64 93.0945 20.764L86.6145 42.04C86.0025 44.056 86.3625 44.38 87.9825 44.38H92.2665C95.0025 44.38 96.3345 43.3 98.8905 38.62L99.9345 38.944L96.2625 46H77.8665L78.1185 45.136C80.8905 45.136 81.7905 44.56 82.4385 42.436L89.0625 20.764C89.7105 18.64 89.6385 18.064 86.4345 18.064L86.6865 17.2H97.6305Z" fill="#FFFFB5"/>
<circle cx="92.5" cy="39.5" r="3.5" fill="#FC4120"/>
<mask id="path-3-inside-1_277_2" fill="white">
<path d="M74 27C74.394 27 74.7841 26.9224 75.1481 26.7716C75.512 26.6209 75.8427 26.3999 76.1213 26.1213C76.3999 25.8427 76.6209 25.512 76.7716 25.148C76.9224 24.7841 77 24.394 77 24C77 23.606 76.9224 23.2159 76.7716 22.8519C76.6209 22.488 76.3999 22.1573 76.1213 21.8787C75.8427 21.6001 75.512 21.3791 75.148 21.2284C74.7841 21.0776 74.394 21 74 21L74 24L74 27Z"/>
</mask>
<path d="M74 27C74.394 27 74.7841 26.9224 75.1481 26.7716C75.512 26.6209 75.8427 26.3999 76.1213 26.1213C76.3999 25.8427 76.6209 25.512 76.7716 25.148C76.9224 24.7841 77 24.394 77 24C77 23.606 76.9224 23.2159 76.7716 22.8519C76.6209 22.488 76.3999 22.1573 76.1213 21.8787C75.8427 21.6001 75.512 21.3791 75.148 21.2284C74.7841 21.0776 74.394 21 74 21L74 24L74 27Z" fill="#3D8AFD" stroke="#3E73FC" stroke-width="4" mask="url(#path-3-inside-1_277_2)"/>
<circle cx="26.1052" cy="25.499" r="3" transform="rotate(-28.6068 26.1052 25.499)" stroke="#FFBE30" stroke-width="3"/>
<circle cx="30.4949" cy="23.1052" r="3" transform="rotate(-28.6068 30.4949 23.1052)" fill="#FFBE30" stroke="#FFBE30" stroke-width="3"/>
<path d="M125.5 31.5C125.5 34.6956 123.837 37.7944 120.711 40.6684C117.584 43.5429 113.033 46.1545 107.367 48.3581C96.0368 52.7641 80.3511 55.5 63 55.5C45.6489 55.5 29.9632 52.7641 18.6335 48.3581C12.9671 46.1545 8.4156 43.5429 5.28927 40.6684C2.16336 37.7944 0.5 34.6956 0.5 31.5C0.5 28.3044 2.16336 25.2056 5.28927 22.3316C8.4156 19.4571 12.9671 16.8455 18.6335 14.6419C29.9632 10.2359 45.6489 7.5 63 7.5C80.3511 7.5 96.0368 10.2359 107.367 14.6419C113.033 16.8455 117.584 19.4571 120.711 22.3316C123.837 25.2056 125.5 28.3044 125.5 31.5Z" stroke="#FFFFB5"/>
</svg>
